<svg width="30" height="30" viewBox="0 0 30 30" fill="none" xmlns="http://www.w3.org/2000/svg">
<path fill-rule="evenodd" clip-rule="evenodd" d="M0 4.25C0 1.90279 1.90279 0 4.25 0H6.19314C7.412 0 8.47446 0.829539 8.77008 2.01201L10.3366 8.27819C10.5958 9.31501 10.2084 10.4062 9.35343 11.0474L7.5208 12.4219C7.3305 12.5646 7.28913 12.7736 7.34258 12.9196C8.95122 17.3109 12.4391 20.7988 16.8304 22.4074C16.9764 22.4609 17.1854 22.4195 17.3281 22.2292L18.7026 20.3966C19.3438 19.5416 20.435 19.1542 21.4718 19.4134L27.738 20.9799C28.9205 21.2755 29.75 22.338 29.75 23.5569V25.5C29.75 27.8472 27.8472 29.75 25.5 29.75H22.3125C9.98965 29.75 0 19.7604 0 7.4375V4.25Z" fill="#A685FA"/>
</svg>
